<svg id="visual" viewBox="0 0 900 600" width="900" height="600" xmlns="http://www.w3.org/2000/svg" xmlns:xlink="http://www.w3.org/1999/xlink" version="1.1">
<g transform="translate(449.75667508245255 316.4323501769466)">
<path d="M118.1 -213.3C153.9 -183.9 184.3 -154 202.8 -118.3C221.2 -82.7 227.6 -41.3 222.1 -3.2C216.6 35 199.2 70 182.8 109.1C166.4 148.2 151 191.5 120.6 212.1C90.3 232.8 45.2 230.9 -0.8 232.3C-46.8 233.8 -93.7 238.6 -120.7 216C-147.8 193.5 -155.1 143.6 -170.8 103.1C-186.6 62.5 -210.8 31.3 -219.7 -5.1C-228.5 -41.5 -222.1 -83 -200.4 -113.3C-178.8 -143.6 -141.9 -162.7 -105.9 -192C-70 -221.2 -35 -260.6 3.1 -266C41.2 -271.3 82.3 -242.6 118.1 -213.3" fill="#F7770F">
</path>
</g>
</svg>