<!--?xml version="1.0" standalone="no"?-->
            <svg id="sw-js-blob-svg" viewBox="0 0 100 100" xmlns="http://www.w3.org/2000/svg" version="1.1">
                    <defs> 
                        <linearGradient id="sw-gradient" x1="0" x2="1" y1="1" y2="0">
                            <stop id="stop1" stop-color="rgba(248, 117, 55, 1)" offset="0%"></stop>
                            <stop id="stop2" stop-color="rgba(251, 168, 31, 1)" offset="100%"></stop>
                        </linearGradient>
                    </defs>
                <path fill="url(#sw-gradient)" d="M28.1,-31.2C36,-26.8,41.8,-17.6,43.4,-7.7C45.1,2.1,42.6,12.6,35.7,17.1C28.9,21.5,17.8,20,9.3,21C0.9,22.1,-4.9,25.8,-12.8,26.6C-20.7,27.5,-30.7,25.5,-33.6,19.8C-36.4,14,-32.1,4.6,-29.8,-4.7C-27.5,-13.9,-27.2,-22.9,-22.5,-27.9C-17.9,-32.9,-8.9,-33.9,0.6,-34.6C10.1,-35.2,20.1,-35.6,28.1,-31.2Z" width="100%" height="100%" transform="translate(50 50)" stroke-width="0" style="transition: all 0.3s ease 0s;"></path>
            </svg>